<?xml version="1.0" encoding="utf-8"?>
<!-- Generator: Adobe Illustrator 24.0.1, SVG Export Plug-In . SVG Version: 6.00 Build 0)  -->
<svg version="1.1" id="Layer_1" xmlns="http://www.w3.org/2000/svg" xmlns:xlink="http://www.w3.org/1999/xlink" x="0px" y="0px"
	 viewBox="0 0 512 512" style="enable-background:new 0 0 512 512;" xml:space="preserve">
<path fill="#FF0000" d="M509.1,248.9l-246-246C261.2,1.1,258.7,0,256,0c-52.1,0-102.3,15.6-145,45c-4.5,3.1-5.7,9.4-2.6,13.9
	c3.1,4.5,9.4,5.7,13.9,2.6c36.7-25.3,79.4-39.5,123.9-41.3c0.7,18,3.3,35.8,7.6,53H176c-16.5,0-30,13.5-30,30v190h-10.9
	c-12.1,0-22,9.8-22,22c0,6.2,2.6,12.1,7.3,16.3l120.1,121c4.1,4.1,9.6,6.4,15.5,6.5c0,0,0,0,0.1,0c5.8,0,11.3-2.3,15.5-6.4
	l121-121.9c8.5-8.6,8.5-22.5-0.1-31c-4.2-4.1-9.6-6.4-15.5-6.4H366V227c37.5,23.6,80.6,37.1,125.8,38.8
	C486.6,391.4,382.8,492,256,492C125.9,492,20,386.1,20,256c0-48,14.4-94.3,41.5-133.7c3.1-4.5,2-10.8-2.6-13.9
	c-4.5-3.1-10.8-2-13.9,2.6C15.6,153.7,0,203.9,0,256c0,68.4,26.6,132.7,75,181c48.4,48.4,112.6,75,181,75s132.7-26.6,181-75
	s75-112.6,75-181C512,253.3,510.9,250.8,509.1,248.9L509.1,248.9z M267.4,35.5l209.1,209.1C367.1,232.7,279.3,144.8,267.4,35.5z
	 M356,313.2h20.9c0.3,0,0.8,0.1,1.4,0.6c0.8,0.7,0.8,2,0,2.7L257.4,438.3c-0.5,0.5-1,0.6-1.4,0.6c0,0,0,0,0,0
	c-0.4,0-0.9-0.1-1.3-0.6L134.4,317.1c-0.2-0.2-0.4-0.4-0.6-0.5c-0.3-0.2-0.7-0.7-0.7-1.5c0-1.1,0.9-2,2-2H156c5.5,0,10-4.5,10-10
	v-200c0-5.5,4.5-10,10-10h83.8c12.4,36.3,33,69.6,60.9,97.5c8,8.1,16.5,15.5,25.4,22.3v90.2C346,308.7,350.5,313.2,356,313.2
	L356,313.2z"/>
<path fill="#FF0000" d="M246,216c0-16.5-13.5-30-30-30s-30,13.5-30,30s13.5,30,30,30S246,232.5,246,216z M206,216c0-5.5,4.5-10,10-10s10,4.5,10,10
	s-4.5,10-10,10S206,221.5,206,216z"/>
<path fill="#FF0000" d="M296,266c-16.5,0-30,13.5-30,30s13.5,30,30,30s30-13.5,30-30S312.5,266,296,266z M296,306c-5.5,0-10-4.5-10-10s4.5-10,10-10
	s10,4.5,10,10S301.5,306,296,306z"/>
<path fill="#FF0000" d="M295.6,187.3c-4.8-2.8-10.9-1.1-13.7,3.7l-69.3,120c-2.8,4.8-1.1,10.9,3.7,13.7c1.6,0.9,3.3,1.3,5,1.3c3.5,0,6.8-1.8,8.7-5
	l69.3-120C302.1,196.2,300.4,190.1,295.6,187.3z"/>
<path fill="#FF0000" d="M82.1,92.1c5.5,0,10-4.5,10-10s-4.5-10-10-10h0c-5.5,0-10,4.5-10,10S76.5,92.1,82.1,92.1z"/>
</svg>
