<?xml version="1.0" encoding="utf-8"?>
<!-- Generator: Adobe Illustrator 24.0.1, SVG Export Plug-In . SVG Version: 6.00 Build 0)  -->
<svg version="1.1" id="Capa_1" xmlns="http://www.w3.org/2000/svg" xmlns:xlink="http://www.w3.org/1999/xlink" x="0px" y="0px"
	 viewBox="0 0 512 512" style="enable-background:new 0 0 512 512;" xml:space="preserve">
<path fill="#FF0000" d="M183.5,128c-18.8,0-34.1,15.3-34.1,34.1s15.3,34.1,34.1,34.1s34.1-15.3,34.1-34.1S202.3,128,183.5,128z M183.5,179.2
	c-9.4,0-17.1-7.7-17.1-17.1c0-9.4,7.7-17.1,17.1-17.1s17.1,7.7,17.1,17.1C200.5,171.5,192.9,179.2,183.5,179.2z"/>
<path fill="#FF0000" d="M294.4,238.9c-18.8,0-34.1,15.3-34.1,34.1c0,18.8,15.3,34.1,34.1,34.1s34.1-15.3,34.1-34.1S313.2,238.9,294.4,238.9z
	 M294.4,290.1c-9.4,0-17.1-7.7-17.1-17.1c0-9.4,7.7-17.1,17.1-17.1s17.1,7.7,17.1,17.1C311.5,282.5,303.8,290.1,294.4,290.1z"/>
<rect fill="#FF0000" x="150.2" y="204.8" transform="matrix(0.7071 -0.7071 0.7071 0.7071 -82.117 228.4167)" width="168.9" height="17.1"/>
<path fill="#FF0000" d="M192.7,380.6l-44,102.6l-17.4-34.7c-1.8-3.7-6-5.5-10-4.4l-43,12.3l44.7-111.9l-15.8-6.3l-51.2,128c-1.2,3-0.6,6.5,1.6,8.9
	s5.5,3.4,8.7,2.5l52.9-15.1l22.4,44.9c1.5,2.9,4.4,4.7,7.6,4.7c0.1,0,0.2,0,0.3,0c3.3-0.1,6.3-2.1,7.6-5.2l51.2-119.5L192.7,380.6z"
	/>
<path fill="#FF0000" d="M413.2,466.2l-51.2-128l-15.8,6.3l44.7,111.8l-43-12.3c-4-1.1-8.1,0.7-10,4.4l-17.7,35.3L276.5,389l-15.5,7.2L312.2,507
	c1.4,3,4.3,4.9,7.6,5c0,0,0.1,0,0.1,0c3.2,0,6.2-1.8,7.6-4.7l22.4-44.9l52.9,15.1c3.1,0.9,6.5-0.1,8.7-2.5
	C413.8,472.6,414.5,469.2,413.2,466.2z"/>
<path fill="#FF0000" d="M445.8,207.6l-37-41l11.5-53.9c0.9-4.3-1.6-8.6-5.7-9.9l-52.5-16.9l-16.9-52.6c-1.3-4.2-5.6-6.6-9.9-5.7l-53.9,11.6l-41-37
	c-3.3-2.9-8.2-2.9-11.4,0l-41,37l-53.9-11.6c-4.3-0.9-8.6,1.5-9.9,5.7l-16.9,52.6l-52.6,16.9c-4.2,1.3-6.6,5.6-5.7,9.9l11.6,53.9
	l-37,41c-2.9,3.3-2.9,8.2,0,11.4l37,41l-11.6,53.9c-0.9,4.3,1.6,8.6,5.7,9.9l52.6,16.9l16.9,52.5c1.3,4.2,5.6,6.7,9.9,5.7l53.9-11.5
	l41,37c1.6,1.5,3.7,2.2,5.7,2.2c2,0,4.1-0.7,5.7-2.2l41-37l53.9,11.5c4.3,1,8.6-1.6,9.9-5.7l16.9-52.5l52.5-16.9
	c4.2-1.3,6.6-5.6,5.7-9.9L408.8,260l37-41C448.7,215.8,448.7,210.9,445.8,207.6z M393.2,251.8c-1.8,2-2.6,4.8-2,7.5L402,310
	l-49.3,15.9c-2.6,0.8-4.7,2.9-5.5,5.5l-15.9,49.3l-50.7-10.8c-2.7-0.6-5.5,0.2-7.5,2l-38.5,34.8l-38.5-34.8
	c-1.6-1.4-3.6-2.2-5.7-2.2c-0.6,0-1.2,0.1-1.8,0.2L138,380.7l-15.9-49.3c-0.8-2.6-2.9-4.7-5.5-5.5L67.2,310l10.9-50.6
	c0.6-2.7-0.2-5.5-2-7.5l-34.8-38.5l34.8-38.5c1.8-2,2.6-4.8,2-7.5l-10.9-50.6l49.4-15.9c2.6-0.8,4.7-2.9,5.5-5.5L138,45.9l50.6,10.9
	c2.7,0.6,5.5-0.2,7.5-2L234.7,20l38.5,34.8c2,1.8,4.8,2.6,7.5,2l50.6-10.9l15.9,49.4c0.8,2.6,2.9,4.7,5.5,5.5l49.3,15.9l-10.8,50.7
	c-0.6,2.7,0.2,5.5,2,7.5l34.8,38.5L393.2,251.8z"/>
<path fill="#FF0000" d="M483.5,34.2c-13.9-2.3-24.8-13.2-27.1-27.1C455.7,3,452.2,0,448,0s-7.7,3-8.4,7.1c-2.3,13.9-13.2,24.8-27.1,27.1
	c-4.1,0.7-7.1,4.2-7.1,8.4s3,7.7,7.1,8.4c13.9,2.3,24.8,13.2,27.1,27.1c0.7,4.1,4.2,7.1,8.4,7.1s7.7-3,8.4-7.1
	c2.3-13.9,13.2-24.8,27.1-27.1c4.1-0.7,7.1-4.2,7.1-8.4S487.7,34.9,483.5,34.2z M448,54.8c-3.3-4.7-7.4-8.8-12.2-12.2
	c4.7-3.3,8.8-7.4,12.2-12.2c3.3,4.7,7.4,8.8,12.2,12.2C455.4,46,451.3,50.1,448,54.8z"/>
</svg>
