<?xml version="1.0" encoding="utf-8"?>
<!-- Generator: Adobe Illustrator 24.0.1, SVG Export Plug-In . SVG Version: 6.00 Build 0)  -->
<svg version="1.1" id="Layer_1" xmlns="http://www.w3.org/2000/svg" xmlns:xlink="http://www.w3.org/1999/xlink" x="0px" y="0px"
	 viewBox="0 0 512 512" style="enable-background:new 0 0 512 512;" xml:space="preserve">
<path fill="#FF0000" d="M466,121.6c0-11-5.9-21.1-15.3-26.4c-0.1-0.1-0.2-0.1-0.4-0.2L270.4,3.8c-9-5-19.6-5.1-28.6-0.1L62.9,94.3
	C52.6,99.3,46,110,46,121.6v148.2c0,53.8,19.8,105.5,57.4,149.7c36.9,43.3,88.1,75.8,144.4,91.3c2.7,0.8,5.5,1.2,8.3,1.2
	c2.6,0,5.2-0.3,7.8-1c56.5-15.5,107.9-47.9,144.9-91.4c37.5-44.1,57.4-95.9,57.4-149.7L466,121.6z M66,146.3l68.3,21.7
	c1.9,0.6,4,0.6,5.9,0.1l73.5-21.9c9.4-2.8,14.3-2.6,20.2,0.8l1.8,1.1l-25.7,14.8c-14.4,8.3-19.4,26.9-11.1,41.3
	c8.1,14,25.6,18.9,40.8,11.4c7.4-3.6,18-8.4,26.2-11.6c6.9,4.2,22.1,13.4,38,23c35.6,21.6,80,48.5,86.9,52.5c2.3,1.3,4,3.5,4.7,6.1
	c0.7,2.6,0.4,5.3-1,7.6c-2.8,4.8-8.9,6.4-13.7,3.7l-17.4-10.1c0,0,0,0,0,0l0,0l-64.7-37.4c-4.8-2.8-10.9-1.1-13.7,3.7
	c-2.8,4.8-1.1,10.9,3.7,13.7l64.7,37.4c0,0,0,0,0,0l0,0c4.8,2.8,6.4,8.9,3.7,13.7c-1.3,2.3-3.5,4-6.1,4.7c-2.6,0.7-5.3,0.4-7.6-1
	l-11.5-6.6c0,0,0,0,0,0l0,0l-56.8-32.8c-4.8-2.8-10.9-1.1-13.7,3.7s-1.1,10.9,3.7,13.7l56.8,32.8c0,0,0,0,0,0
	c4.8,2.8,6.4,8.9,3.7,13.7c-1.3,2.3-3.5,4-6.1,4.7c-2.6,0.7-5.3,0.3-7.6-1l-19.5-11.3L256.9,318c-2.5-4.1-6.1-7.7-10.6-10.3
	c-4.8-2.8-10.2-4.1-15.7-4c-0.9-9.4-6.1-18.2-14.9-23.2c-5.2-3-11.2-4.4-17.1-3.9c-0.2-1-0.4-2-0.7-3.1c-2.1-7.8-7-14.3-14-18.3
	c-6.9-4-15-5.1-22.8-3c-5.2,1.4-9.8,4-13.5,7.7c-2.3-2.9-5.1-5.4-8.5-7.4c-14.3-8.3-32.8-3.4-41.1,11l-4,6.8L66,254.1V146.3z
	 M132.9,283.5l-11.4,19.7c-2.8,4.8-8.9,6.4-13.7,3.7c-2.3-1.3-4-3.5-4.7-6.1c-0.7-2.6-0.4-5.3,1-7.6l11.4-19.7
	c1.3-2.3,3.5-4,6.1-4.7c2.6-0.7,5.3-0.4,7.6,1C134,272.6,135.7,278.7,132.9,283.5z M134.6,320.6l4.3-7.4c0,0,0,0,0,0l11.4-19.7
	l10-17.4c1.3-2.3,3.5-4,6.1-4.7c2.6-0.7,5.3-0.4,7.6,1c4.8,2.8,6.5,8.9,3.7,13.7l-3,5.2c0,0,0,0,0,0l-19.7,34c0,0,0,0,0,0l-3,5.2
	c-2.8,4.8-8.9,6.5-13.7,3.7C133.5,331.6,131.8,325.4,134.6,320.6L134.6,320.6z M172.4,335.5L172.4,335.5
	C172.4,335.5,172.4,335.5,172.4,335.5l19.7-34.1c0,0,0,0,0,0c0,0,0,0,0,0l0,0c1.3-2.3,3.5-4,6.1-4.7c2.6-0.7,5.3-0.4,7.6,1
	c4.8,2.8,6.5,8.9,3.7,13.7l-4.2,7.2l-11.3,19.7c0,0,0,0,0,0l-4.2,7.2c-2.8,4.8-8.9,6.5-13.7,3.7
	C171.2,346.4,169.6,340.3,172.4,335.5L172.4,335.5z M211.2,348.3L211.2,348.3l11.4-19.7c1.3-2.3,3.5-4,6.1-4.7
	c2.6-0.7,5.3-0.4,7.6,1c4.8,2.8,6.5,8.9,3.7,13.7l-11.4,19.7c-2.8,4.8-8.9,6.5-13.7,3.7c-2.3-1.3-4-3.5-4.7-6.1
	C209.6,353.3,209.9,350.6,211.2,348.3L211.2,348.3z M257.3,348.7c1.1-1.9,2-3.9,2.6-5.9l22.4,12.9c0,0,0,0,0,0c0,0,0,0,0,0l0,0
	c4.8,2.8,6.4,8.9,3.7,13.7c-2.8,4.8-8.9,6.4-13.7,3.7l-21.8-12.6L257.3,348.7z M154.1,353.7c2.5,5.2,6.6,9.7,12,12.8
	c8.7,5.1,19,5.2,27.6,1.3c2.6,4.8,6.5,8.8,11.3,11.6c4.6,2.7,9.7,4,14.9,4c2.6,0,5.3-0.3,7.9-1c4.1-1.1,7.8-3,11-5.5l23.6,13.6
	c4.7,2.7,9.9,4,15,4c10.4,0,20.5-5.4,26.1-15c1.9-3.2,3.1-6.6,3.6-10.1c5.7,2,11.8,2.2,17.7,0.6c7.8-2.1,14.3-7,18.3-14
	c2.4-4.1,3.7-8.6,4-13.1c3.1,0.1,6.2-0.2,9.3-1c7.8-2.1,14.3-7,18.3-14c2-3.4,3.2-7,3.7-10.7c7.2,1.9,14.7,1.1,21.2-2.1
	c-7,23.2-19.2,45.4-36.4,65.6c-27.3,32.2-65.2,57-106.9,70c-41.7-13.1-79.6-37.9-106.9-70c-7.8-9.2-14.7-18.8-20.4-28.8
	C136.7,356.4,146,356.8,154.1,353.7L154.1,353.7z M408.6,268.5c-2.2-2.5-4.7-4.6-7.7-6.3c-6.7-3.9-52.8-31.8-86.5-52.3
	c-11.6-7.1-22.2-13.4-29.8-18c-3.8-2.3-6.9-4.2-9.1-5.5c-4.7-2.8-5.7-3.4-8.5-3.4c-1.1,0-2.2,0.2-3.3,0.6
	c-9.7,3.4-23.8,9.7-32.8,14.2c-4.8,2.3-11.5,1.9-14.6-3.4c-2.8-4.9-1.1-11.2,3.8-14l57.5-33.2c5.9-3.4,10.8-3.6,20.2-0.8l73.5,21.9
	c1.9,0.6,3.8,0.6,5.7,0l69-20.5l0,106.8L408.6,268.5z M71.7,112.3c0.1,0,0.1-0.1,0.2-0.1L251,21.4c0.1-0.1,0.3-0.1,0.4-0.2
	c1.4-0.8,3-1.2,4.6-1.2c1.6,0,3.2,0.4,4.7,1.3c0.2,0.1,0.3,0.2,0.5,0.3L441,112.7c3.1,1.8,5,5.2,5,8.9l0,5.2l-20.1,6
	c-0.3-3.4-2.3-6.4-5.4-8l-160-81.1c-2.8-1.4-6.2-1.4-9,0l-39.8,20.2c-4.9,2.5-6.9,8.5-4.4,13.4c2.5,4.9,8.5,6.9,13.4,4.4L256,63.8
	l148.6,75.3l-30.4,9l-70.7-21c-10.7-3.2-22.5-5.1-35.9,2.6l-11.8,6.8l-11.8-6.8c-13.4-7.7-25.2-5.8-35.9-2.6l-70.6,21l-29.4-9.4
	l32.3-16.4c4.9-2.5,6.9-8.5,4.4-13.4c-2.5-4.9-8.5-6.9-13.4-4.4l-39.8,20.2c-2.8,1.4-4.7,4.1-5.3,7.1L66,125.3v-3.8
	C66,117.6,68.2,114,71.7,112.3L71.7,112.3z M393.4,406.6c-34.4,40.5-82.3,70.7-134.9,85.1c-1.7,0.5-3.4,0.4-5.1-0.1
	c-0.1,0-0.1,0-0.2-0.1c-52.4-14.5-100.2-44.6-134.5-85c-32.7-38.4-50.7-83-52.5-129.3l18.5,10.7c-2.1,5.7-2.4,12-0.8,18.1
	c1.6,6.1,5.1,11.4,9.8,15.4c7.8,25.8,21.3,50.1,40.1,72.3c30.4,35.8,72.8,63.2,119.3,77.1c0.9,0.3,1.9,0.4,2.9,0.4
	c1,0,1.9-0.1,2.9-0.4c46.5-13.9,88.8-41.3,119.3-77.1c28-32.9,44.2-70.8,47.3-110.1l20.4-7.7C444.5,322.7,426.4,367.8,393.4,406.6
	L393.4,406.6z"/>
<path fill="#FF0000" d="M176,103.1c5.5,0,10-4.5,10-10s-4.5-10-10-10h0c-5.5,0-10,4.5-10,10S170.5,103.1,176,103.1z"/>
</svg>
